<?xml version="1.0" standalone="no"?>
<!DOCTYPE svg PUBLIC "-//W3C//DTD SVG 20010904//EN"
 "http://www.w3.org/TR/2001/REC-SVG-20010904/DTD/svg10.dtd">
<svg version="1.0" xmlns="http://www.w3.org/2000/svg"
 width="397.000000pt" height="397.000000pt" viewBox="0 0 397.000000 397.000000"
 preserveAspectRatio="xMidYMid meet">
<metadata>
Created by potrace 1.14, written by Peter Selinger 2001-2017
</metadata>
<g transform="translate(0.000000,397.000000) scale(0.100000,-0.100000)"
fill="#000000" stroke="none">
<path d="M0 1985 l0 -1985 1985 0 1985 0 0 1985 0 1985 -1985 0 -1985 0 0
-1985z m2007 932 c252 -166 463 -306 468 -309 6 -4 155 31 330 78 176 46 321
84 323 84 1 0 1 -321 0 -712 l-3 -713 -1127 -3 -1128 -2 0 555 c0 305 2 555 4
555 2 0 68 -23 147 -51 79 -28 178 -63 219 -77 l75 -25 90 23 c49 12 96 26
103 29 10 6 12 102 13 445 0 378 2 437 14 432 8 -3 221 -142 472 -309z m215
-1722 c14 -4 28 -16 31 -27 10 -38 -1 -47 -60 -45 -47 2 -57 -1 -74 -22 -35
-43 -19 -93 34 -105 29 -7 39 10 12 20 -9 4 -15 19 -15 35 0 28 1 29 54 29 62
0 66 -5 66 -86 0 -49 -2 -55 -26 -64 -100 -39 -214 29 -214 127 0 53 21 103
52 122 28 17 77 30 98 25 8 -2 27 -6 42 -9z m-1467 -5 c32 -12 66 -83 58 -123
-7 -36 -48 -67 -89 -67 -33 0 -34 -1 -34 -40 0 -33 -3 -40 -19 -40 -50 0 -51
4 -51 146 l0 134 54 0 c30 0 66 -4 81 -10z m258 -1 c51 -23 74 -110 42 -157
-15 -20 -14 -25 10 -67 l27 -45 -30 0 c-23 0 -38 10 -65 41 -39 47 -56 45 -53
-6 1 -30 -2 -35 -21 -35 -52 0 -53 3 -53 146 l0 134 60 0 c32 0 70 -5 83 -11z
m321 -5 c17 -45 9 -54 -54 -54 -47 0 -60 -3 -60 -15 0 -11 12 -15 49 -15 42 0
49 -3 55 -22 14 -53 10 -58 -49 -58 -42 0 -55 -3 -55 -15 0 -12 13 -15 59 -15
61 0 71 -7 71 -51 0 -17 -8 -19 -84 -19 -46 0 -91 3 -100 6 -14 5 -16 27 -16
140 l0 134 89 0 c72 0 90 -3 95 -16z m225 6 c22 -11 32 -35 25 -55 -5 -11 -16
-13 -49 -9 -58 8 -66 -10 -16 -36 67 -34 90 -103 49 -147 -28 -30 -99 -32
-145 -3 -30 18 -32 22 -21 45 8 18 16 24 27 19 9 -4 31 -9 49 -12 45 -6 43 22
-3 44 -44 21 -65 49 -65 88 0 46 35 76 87 76 25 0 52 -4 62 -10z m265 -6 c14
-37 7 -54 -24 -54 l-30 0 0 -105 0 -105 -28 0 c-45 0 -52 15 -52 117 0 83 -2
93 -18 93 -25 0 -42 19 -42 47 0 22 3 23 94 23 76 0 95 -3 100 -16z m131 -6
c2 -13 6 -76 7 -141 3 -114 2 -117 -19 -117 -52 0 -53 3 -53 146 l0 134 30 0
c23 0 31 -5 35 -22z m579 6 c17 -45 9 -54 -54 -54 -47 0 -60 -3 -60 -15 0 -11
12 -15 45 -15 38 0 47 -4 57 -24 18 -41 5 -56 -52 -56 -38 0 -50 -4 -50 -15 0
-11 12 -15 51 -15 55 0 79 -15 79 -49 0 -20 -6 -21 -89 -21 -49 0 -96 3 -105
6 -14 5 -16 27 -16 140 l0 134 94 0 c76 0 95 -3 100 -16z m229 -4 c31 -24 50
-78 41 -114 -9 -36 -50 -66 -90 -66 -33 0 -34 -1 -34 -40 0 -33 -3 -40 -19
-40 -50 0 -51 4 -51 146 l0 134 64 0 c48 0 69 -5 89 -20z m260 0 c47 -37 57
-110 21 -151 -12 -13 -10 -20 11 -51 32 -48 31 -58 -5 -58 -24 0 -36 8 -58 40
-35 51 -52 51 -52 0 0 -33 -3 -40 -19 -40 -50 0 -51 4 -51 146 l0 134 64 0
c48 0 69 -5 89 -20z m307 5 c38 -20 80 -92 80 -137 0 -41 -34 -97 -70 -115
-89 -45 -210 31 -210 131 0 106 106 170 200 121z m-2132 -417 c2 -10 -6 -19
-20 -23 -13 -4 -26 -13 -30 -19 -4 -6 -8 6 -8 27 0 36 2 38 27 35 16 -2 29
-10 31 -20z m107 -15 c1 -18 -3 -33 -7 -33 -4 0 -8 5 -8 10 0 14 -27 12 -33
-2 -3 -7 -6 4 -6 25 -1 36 1 38 27 35 23 -3 27 -8 27 -35z m124 18 c13 -24 -8
-55 -34 -50 -28 6 -42 34 -26 53 18 22 48 20 60 -3z m111 -1 c0 -11 -8 -24
-17 -27 -10 -4 -21 -11 -25 -17 -4 -6 -8 6 -8 27 0 33 3 37 25 37 18 0 25 -5
25 -20z m93 13 c-13 -2 -23 -9 -23 -14 0 -5 10 -10 23 -10 l22 -2 -22 -4 c-13
-2 -23 -8 -23 -13 0 -5 10 -11 23 -13 19 -4 18 -4 -5 -6 -26 -1 -28 2 -28 34
0 32 2 35 28 34 23 -2 24 -2 5 -6z m125 -28 c-1 -29 -4 -33 -15 -23 -11 9 -17
9 -24 -3 -6 -10 -9 -3 -9 24 0 33 3 37 25 37 21 0 24 -4 23 -35z m105 28 c-7
-2 -14 -19 -14 -36 l-2 -32 -4 30 c-3 16 -10 33 -16 37 -7 4 2 7 18 7 17 0 24
-3 18 -6z m93 -8 c18 24 18 16 0 -25 -11 -26 -14 -29 -18 -14 -3 11 -9 28 -13
39 -6 19 -6 19 6 1 12 -19 12 -19 25 -1z m172 8 c-22 -5 -24 -23 -3 -23 8 0
15 -9 15 -20 0 -22 -34 -28 -46 -9 -4 8 0 9 15 4 24 -7 29 10 6 19 -24 9 -18
36 8 35 16 -1 18 -2 5 -6z m105 0 c-13 -2 -23 -9 -23 -14 0 -5 10 -10 23 -10
l22 -2 -22 -4 c-13 -2 -23 -8 -23 -13 0 -5 10 -11 23 -13 19 -4 18 -4 -5 -6
-26 -1 -28 2 -28 34 0 32 2 35 28 34 23 -2 24 -2 5 -6z m129 -5 c3 -7 1 -24
-3 -38 -4 -14 -7 -19 -8 -12 -1 6 -7 12 -15 12 -8 0 -17 -6 -19 -12 -3 -7 -6
4 -6 25 -1 33 2 37 23 37 13 0 26 -6 28 -12z m103 -12 c17 36 19 28 4 -15 -6
-17 -15 -31 -19 -31 -4 0 -13 14 -19 31 -15 44 -13 49 6 15 l16 -30 12 30z
m175 15 c-14 -4 -25 -12 -24 -19 2 -26 4 -31 17 -35 8 -3 7 -4 -2 -3 -8 1 -19
8 -24 18 -14 21 7 48 37 47 19 -1 18 -2 -4 -8z m113 2 c-13 -2 -23 -9 -23 -14
0 -5 10 -10 23 -10 l22 -2 -22 -4 c-13 -2 -23 -8 -23 -13 0 -5 10 -11 23 -13
19 -4 18 -4 -5 -6 -26 -1 -28 2 -28 34 0 32 2 35 28 34 23 -2 24 -2 5 -6z
m105 0 c-22 -5 -24 -23 -3 -23 8 0 15 -9 15 -20 0 -21 -33 -29 -44 -11 -4 5 3
7 14 4 23 -6 27 12 5 21 -24 9 -18 36 8 35 16 -1 18 -2 5 -6z m-308 -35 c0
-36 -12 -31 -16 7 -1 14 2 25 7 25 5 0 9 -14 9 -32z"/>
<path d="M1560 2761 c0 -221 1 -401 3 -401 1 0 45 12 97 26 52 14 241 63 420
110 179 47 332 87 340 90 8 3 -158 119 -410 286 -234 154 -430 283 -437 285
-10 4 -13 -76 -13 -396z"/>
<path d="M2805 2647 l-270 -72 0 -355 0 -355 127 -45 128 -45 0 -197 0 -198
150 0 150 0 0 670 c0 369 -3 670 -7 669 -5 0 -129 -33 -278 -72z"/>
<path d="M2330 2524 c-69 -19 -269 -72 -445 -118 l-320 -83 0 -58 0 -58 325
-114 c179 -63 387 -136 463 -163 l137 -48 0 339 c0 317 -1 339 -17 338 -10 -1
-74 -17 -143 -35z"/>
<path d="M910 1885 l0 -505 180 0 180 0 0 445 c0 245 -2 445 -3 445 -2 0 -81
27 -175 60 -93 33 -173 60 -176 60 -3 0 -6 -227 -6 -505z"/>
<path d="M1447 2293 c-32 -9 -55 -19 -50 -23 4 -4 34 -17 66 -29 l57 -21 0 35
c0 19 0 38 1 42 1 12 -14 12 -74 -4z"/>
<path d="M1300 1815 l0 -435 110 0 c61 0 110 3 110 8 3 407 -1 787 -7 792 -8
8 -192 70 -206 70 -4 0 -7 -196 -7 -435z"/>
<path d="M1560 1770 l0 -390 465 0 465 0 0 230 c0 127 -2 230 -4 230 -4 0
-201 69 -610 214 -165 58 -303 106 -308 106 -4 0 -8 -175 -8 -390z"/>
<path d="M2530 1601 l0 -221 110 0 110 0 0 183 0 183 -97 34 c-54 18 -104 35
-110 38 -10 3 -13 -44 -13 -217z"/>
<path d="M2103 1180 c-34 -14 -63 -68 -62 -115 l2 -40 6 43 c11 63 53 102 122
112 l54 8 -50 0 c-27 0 -60 -3 -72 -8z"/>
<path d="M2170 1062 c0 -4 18 -6 40 -4 22 2 40 6 40 8 0 2 -18 4 -40 4 -22 0
-40 -3 -40 -8z"/>
<path d="M2204 989 c-4 -7 -21 -9 -43 -5 -25 4 -31 2 -21 -4 25 -16 80 -12 80
5 0 18 -6 19 -16 4z"/>
<path d="M632 1068 l2 -123 3 119 4 118 59 -4 c33 -2 55 -1 48 4 -7 4 -37 8
-65 8 l-53 0 2 -122z"/>
<path d="M690 1104 c0 -21 4 -25 23 -22 14 2 23 11 25 26 3 18 -1 22 -22 22
-21 0 -26 -5 -26 -26z"/>
<path d="M751 1097 c0 -10 -15 -24 -33 -32 -32 -14 -32 -14 -7 -15 31 0 53 22
46 47 -5 17 -5 17 -6 0z"/>
<path d="M882 1068 l2 -123 3 118 4 119 58 -4 c33 -1 57 0 54 5 -2 4 -31 7
-64 7 l-59 0 2 -122z"/>
<path d="M950 1105 c0 -22 4 -26 23 -23 14 2 22 10 22 23 0 13 -8 21 -22 23
-19 3 -23 -1 -23 -23z"/>
<path d="M981 1073 c-34 -23 -34 -23 -8 -23 16 0 31 8 37 21 16 29 10 29 -29
2z"/>
<path d="M1162 1068 l2 -123 3 117 4 117 77 4 77 3 -82 2 -83 2 2 -122z"/>
<path d="M1220 1080 c0 -5 20 -10 45 -10 25 0 45 5 45 10 0 6 -20 10 -45 10
-25 0 -45 -4 -45 -10z"/>
<path d="M1248 973 c18 -2 45 -2 60 0 15 2 0 4 -33 4 -33 0 -45 -2 -27 -4z"/>
<path d="M1440 1170 c-11 -11 -19 -32 -19 -47 1 -22 3 -24 6 -7 6 31 37 56 81
64 l37 8 -42 1 c-31 1 -49 -5 -63 -19z"/>
<path d="M1507 1079 c7 -7 15 -10 18 -7 3 3 -2 9 -12 12 -14 6 -15 5 -6 -5z"/>
<path d="M1515 990 c-3 -5 -21 -10 -38 -11 -31 0 -31 -1 -8 -10 29 -11 61 -3
61 17 0 16 -6 18 -15 4z"/>
<path d="M1415 979 c-11 -17 1 -21 15 -4 8 9 8 15 2 15 -6 0 -14 -5 -17 -11z"/>
<path d="M1650 1183 c0 -5 26 -7 57 -5 101 5 111 9 26 11 -46 0 -83 -2 -83 -6z"/>
<path d="M1902 1068 l2 -123 3 117 c3 100 6 117 21 121 12 3 11 5 -5 6 -23 1
-23 0 -21 -121z"/>
<path d="M2352 1068 l2 -123 5 115 6 115 80 6 80 5 -87 2 -88 2 2 -122z"/>
<path d="M2420 1080 c0 -5 18 -10 40 -10 22 0 40 5 40 10 0 6 -18 10 -40 10
-22 0 -40 -4 -40 -10z"/>
<path d="M2443 973 c15 -2 39 -2 55 0 15 2 2 4 -28 4 -30 0 -43 -2 -27 -4z"/>
<path d="M2622 1068 l2 -123 3 117 4 117 52 4 52 3 -57 2 -58 2 2 -122z"/>
<path d="M2680 1104 c0 -21 4 -25 23 -22 14 2 23 11 25 26 3 18 -1 22 -22 22
-21 0 -26 -5 -26 -26z"/>
<path d="M2710 1068 c-32 -16 -33 -17 -10 -17 29 -1 54 13 49 26 -2 5 -20 1
-39 -9z"/>
<path d="M2882 1068 l2 -123 3 117 4 117 52 4 52 3 -57 2 -58 2 2 -122z"/>
<path d="M2940 1104 c0 -21 4 -25 23 -22 14 2 23 11 25 26 3 18 -1 22 -22 22
-21 0 -26 -5 -26 -26z"/>
<path d="M3001 1098 c0 -10 -16 -24 -33 -32 -32 -14 -32 -14 -7 -15 31 -1 53
21 46 46 -4 17 -5 17 -6 1z"/>
<path d="M3199 1173 c-37 -23 -59 -65 -58 -110 l1 -38 7 37 c15 74 72 124 137
116 18 -2 30 0 28 4 -9 14 -88 8 -115 -9z"/>
<path d="M3233 1115 c-24 -17 -37 -57 -28 -86 16 -49 101 -43 124 7 30 66 -37
121 -96 79z"/>
<path d="M3335 1026 c-12 -17 -36 -36 -55 -43 -34 -12 -34 -12 -7 -12 40 -1
62 13 77 49 17 41 9 45 -15 6z"/>
<path d="M1152 768 c5 -15 28 -18 29 -3 0 6 -7 12 -17 13 -10 3 -15 -1 -12
-10z"/>
<path d="M1260 765 c0 -10 7 -15 18 -13 21 4 19 22 -2 26 -10 2 -16 -3 -16
-13z"/>
<path d="M1376 771 c-9 -13 4 -41 18 -41 18 0 35 21 29 36 -6 16 -39 19 -47 5z"/>
<path d="M1500 765 c0 -8 7 -15 15 -15 8 0 15 7 15 15 0 8 -7 15 -15 15 -8 0
-15 -7 -15 -15z"/>
<path d="M1720 765 c0 -8 7 -15 15 -15 8 0 15 7 15 15 0 8 -7 15 -15 15 -8 0
-15 -7 -15 -15z"/>
<path d="M2320 765 c0 -10 7 -15 18 -13 21 4 19 22 -2 26 -10 2 -16 -3 -16
-13z"/>
</g>
</svg>
